<?xml version="1.0" standalone="no"?>
<!DOCTYPE svg PUBLIC "-//W3C//DTD SVG 20010904//EN"
 "http://www.w3.org/TR/2001/REC-SVG-20010904/DTD/svg10.dtd">
<svg version="1.0" xmlns="http://www.w3.org/2000/svg"
 width="300.000000pt" height="300.000000pt" viewBox="0 0 300.000000 300.000000"
 preserveAspectRatio="xMidYMid meet">
<metadata>
Created by potrace 1.10, written by Peter Selinger 2001-2011
</metadata>
<g transform="translate(0.000000,300.000000) scale(0.100000,-0.100000)"
fill="#000000" stroke="none">
<path d="M2393 2448 c-31 -15 -29 -24 10 -37 32 -11 32 -11 11 7 -20 17 -20
19 -5 30 20 14 13 14 -16 0z"/>
<path d="M2551 2411 c23 -19 24 -19 5 -40 -11 -12 -14 -21 -8 -21 10 0 42 38
42 51 0 6 -45 29 -57 29 -3 0 5 -9 18 -19z"/>
<path d="M2320 2415 c0 -3 12 -11 27 -18 l26 -14 -24 -21 c-13 -12 -33 -28
-44 -36 -11 -9 -17 -16 -14 -16 3 0 29 17 57 39 l52 38 -40 16 c-22 8 -40 14
-40 12z"/>
<path d="M2603 2370 c-13 -16 -23 -31 -23 -34 0 -3 15 -13 33 -22 29 -16 31
-16 18 -1 -7 10 -20 17 -27 17 -8 0 -14 5 -14 10 0 6 3 10 8 10 8 0 35 40 30
45 -2 1 -13 -10 -25 -25z"/>
<path d="M2357 2322 c-14 -16 -12 -17 41 -19 37 -2 52 1 43 6 -8 5 -20 7 -26
4 -7 -2 -19 3 -28 11 -13 14 -16 13 -30 -2z"/>
<path d="M2558 2301 c29 -25 28 -28 -10 -51 -18 -11 -28 -20 -23 -20 12 0 88
50 83 55 -2 1 -19 10 -38 19 l-35 17 23 -20z"/>
<path d="M524 2262 c21 -25 21 -27 -14 -41 -14 -5 -18 -10 -10 -10 8 0 25 5
38 12 l23 13 -28 24 c-25 22 -26 22 -9 2z"/>
<path d="M2353 2273 c51 -4 52 -5 37 -33 -6 -12 -17 -17 -28 -14 -15 5 -15 4
1 -6 10 -7 20 -10 21 -8 17 26 36 58 36 63 0 3 -26 4 -57 3 -57 -2 -57 -2 -10
-5z"/>
<path d="M2595 2246 l-40 -24 28 -7 c15 -4 31 -5 34 -1 4 3 -2 6 -13 6 -16 0
-14 4 11 25 38 31 31 31 -20 1z"/>
<path d="M582 2240 c7 -10 14 -17 16 -15 2 2 20 -3 39 -11 56 -24 48 -10 -12
19 -49 24 -54 25 -43 7z"/>
<path d="M540 2200 c-12 -7 -7 -12 24 -25 21 -9 40 -14 42 -12 3 2 -9 10 -26
17 -16 7 -27 16 -24 21 7 11 3 11 -16 -1z"/>
<path d="M2565 2177 c20 -15 20 -16 -10 -41 -17 -14 -25 -26 -20 -26 12 1 79
60 73 65 -1 2 -17 7 -33 10 -29 7 -29 7 -10 -8z"/>
<path d="M728 2168 c8 -8 6 -19 -10 -42 l-21 -31 34 33 c28 27 31 34 19 42
-21 14 -36 12 -22 -2z"/>
<path d="M514 2157 c17 -13 16 -16 -20 -45 -52 -43 -34 -41 23 3 l45 35 -26
10 c-37 14 -43 13 -22 -3z"/>
<path d="M2601 2124 c-27 -23 -38 -41 -34 -51 5 -13 8 -13 14 5 5 12 23 35 41
51 18 17 30 31 26 31 -5 0 -26 -16 -47 -36z"/>
<path d="M760 2123 c-20 -26 -20 -28 -4 -40 26 -19 40 -16 21 5 -15 16 -15 20
-1 40 22 31 10 27 -16 -5z"/>
<path d="M551 2108 c-23 -18 -37 -34 -31 -36 6 -2 27 12 47 32 45 45 40 46
-16 4z"/>
<path d="M1390 2116 c-68 -16 -107 -36 -141 -73 -30 -32 -59 -85 -59 -107 0
-9 -11 -18 -24 -22 -17 -4 -27 -15 -31 -35 -4 -16 -10 -29 -14 -29 -4 0 -8
-22 -8 -50 0 -27 4 -47 9 -44 4 3 8 -3 8 -12 0 -10 13 -32 29 -49 35 -37 49
-106 25 -126 -47 -39 -90 -177 -124 -396 -22 -143 -25 -235 -10 -280 21 -58
91 -69 123 -19 9 13 23 62 32 108 8 46 22 117 30 158 l14 75 -4 -110 c-3 -60
-14 -165 -25 -232 -11 -67 -23 -173 -26 -236 -6 -101 -4 -121 15 -180 23 -69
56 -107 94 -107 11 0 37 18 57 39 29 30 45 63 74 152 38 114 68 183 85 193 19
12 41 -7 50 -43 5 -20 15 -67 21 -106 16 -89 53 -181 87 -217 68 -71 151 -2
177 147 6 34 -16 260 -38 393 -17 100 -30 292 -16 227 5 -22 9 -58 9 -80 1
-63 29 -158 52 -177 28 -23 72 -23 93 1 26 29 29 75 16 247 -19 268 -46 392
-94 444 -13 14 -27 39 -31 57 -3 18 -14 42 -24 55 -15 18 -19 47 -23 143 -4
113 -6 123 -36 176 -38 66 -55 83 -106 104 -52 22 -196 28 -266 11z m274 -36
c27 -13 53 -35 66 -57 19 -32 19 -35 3 -29 -118 46 -293 23 -387 -49 -43 -32
-76 -38 -76 -12 0 6 20 29 44 52 81 78 228 107 338 65 52 -19 53 -19 30 0 -53
44 -161 52 -267 19 -71 -22 -129 -66 -164 -124 l-20 -34 45 -7 c37 -5 49 -3
67 14 68 61 201 93 323 75 45 -6 83 -18 93 -27 13 -14 17 -45 19 -175 l3 -158
-25 -16 c-74 -49 -126 -61 -266 -61 -161 -1 -181 7 -199 78 -9 36 -17 47 -37
52 -14 4 -28 4 -31 0 -4 -3 3 -6 15 -6 16 0 23 -8 27 -34 13 -67 38 -93 102
-106 124 -26 326 3 385 57 29 26 40 1 34 -75 -6 -69 -30 -133 -72 -187 l-26
-35 -155 0 c-87 0 -163 -4 -174 -10 -17 -10 -19 -22 -19 -133 0 -82 4 -127 12
-135 15 -15 335 -17 358 -2 12 7 15 33 15 122 0 101 2 116 23 145 37 52 81
154 95 223 l14 65 26 -55 c31 -66 52 -188 67 -404 13 -180 15 -176 -62 -176
l-46 0 -6 63 c-20 195 -30 257 -42 257 -20 0 -27 -63 -20 -165 l6 -93 -67 -13
c-83 -17 -283 -17 -378 0 l-70 12 4 146 c3 120 1 145 -10 141 -21 -7 -35 -57
-59 -215 -21 -133 -24 -142 -47 -148 -13 -3 -40 -3 -60 1 l-36 7 7 90 c9 119
41 304 67 392 19 65 66 155 80 155 4 0 14 -11 23 -25 28 -42 106 -83 106 -55
0 6 -7 10 -15 10 -41 0 -115 97 -115 151 0 13 -16 35 -37 54 -36 31 -38 35
-38 95 0 59 2 64 36 94 20 17 45 51 56 76 24 54 54 83 108 106 95 39 252 42
329 4z m162 -475 c7 -27 6 -29 -9 -16 -10 7 -17 25 -17 39 0 33 16 18 26 -23z
m-166 -330 c-7 -8 -24 -21 -39 -28 -14 -7 -27 -20 -29 -30 -9 -45 61 -67 77
-24 5 13 16 29 25 36 14 12 16 4 16 -87 0 -73 -4 -103 -14 -111 -9 -8 -64 -11
-172 -9 l-159 3 0 125 0 125 140 5 c77 3 146 7 154 8 11 2 11 -1 1 -13z m-290
-306 c96 -14 319 -7 369 11 26 10 35 10 41 1 16 -27 64 -448 54 -475 -8 -22
-60 -36 -131 -36 -60 0 -64 2 -74 27 -5 15 -16 70 -24 121 -17 110 -34 145
-72 140 -38 -4 -61 -42 -104 -170 l-38 -113 -68 1 c-37 0 -79 6 -92 13 -24 13
-24 14 -18 130 6 102 26 260 43 344 4 18 11 27 19 23 7 -2 50 -10 95 -17z
m590 -49 c0 -20 -39 -50 -57 -43 -47 16 -59 48 -15 39 15 -3 34 -2 42 4 19 13
30 13 30 0z m-815 -16 c29 7 32 0 8 -26 -20 -22 -51 -23 -75 -1 -30 27 -23 44
12 31 17 -5 42 -7 55 -4z m197 -460 l39 6 -16 -30 c-19 -36 -49 -54 -81 -46
-23 6 -54 51 -54 80 0 13 4 13 37 0 24 -10 51 -14 75 -10z m478 6 c0 -10 -14
-35 -31 -55 -42 -47 -83 -46 -116 4 -13 19 -23 37 -23 42 0 4 26 5 58 3 39 -4
65 0 82 10 14 8 26 14 28 15 1 1 2 -8 2 -19z"/>
<path d="M1616 1888 c28 -28 53 -65 69 -103 14 -33 25 -53 25 -44 0 31 -62
140 -94 164 -50 38 -50 30 0 -17z"/>
<path d="M1649 1896 c19 -22 42 -58 52 -80 10 -23 19 -35 19 -28 0 24 -38 87
-71 117 l-33 30 33 -39z"/>
<path d="M1756 1544 c-24 -60 -72 -107 -123 -122 -54 -16 -208 -15 -258 3 -40
14 -56 12 -39 -5 27 -27 224 -40 295 -18 55 16 114 70 134 122 23 60 15 77 -9
20z"/>
<path d="M1400 1145 l0 -85 60 0 60 0 0 85 0 85 -60 0 -60 0 0 -85z m98 35 c0
-23 -4 -30 -19 -30 -20 0 -26 15 -9 25 5 3 7 12 3 20 -3 9 1 15 9 15 10 0 15
-11 16 -30z m2 -54 c0 -9 -14 -13 -40 -13 -25 0 -40 4 -40 12 0 8 15 13 40 13
26 1 40 -4 40 -12z"/>
<path d="M1592 1103 c2 -10 10 -18 18 -18 22 0 18 29 -3 33 -14 3 -18 -1 -15
-15z"/>
<path d="M1644 1109 c-7 -12 15 -31 28 -23 4 3 8 12 8 20 0 17 -26 19 -36 3z"/>
<path d="M729 2049 c-12 -7 -12 -9 1 -9 9 0 2 -12 -20 -31 l-35 -31 48 32 c26
17 47 33 47 34 0 10 -28 13 -41 5z"/>
<path d="M551 2028 c4 -35 -1 -40 -33 -35 l-33 6 30 -14 c28 -12 31 -11 47 13
22 33 22 42 3 42 -9 0 -15 -6 -14 -12z"/>
<path d="M762 2008 c-33 -21 -30 -38 8 -38 13 0 13 1 0 10 -13 9 -11 13 10 30
33 26 23 25 -18 -2z"/>
<path d="M696 1951 c5 -5 18 -11 29 -13 14 -2 19 -10 16 -23 -3 -20 -3 -20 19
0 l21 19 -33 12 c-41 15 -66 17 -52 5z"/>
<path d="M702 1880 c-23 -31 -29 -60 -12 -60 5 0 7 7 3 16 -3 8 4 25 17 39 13
14 21 27 18 30 -2 3 -14 -9 -26 -25z"/>
<path d="M737 1863 c-14 -16 -14 -21 -1 -43 14 -24 15 -24 9 -2 -4 13 -1 30 6
38 17 21 5 27 -14 7z"/>
</g>
</svg>
